<svg xmlns="http://www.w3.org/2000/svg" viewBox="0 0 512 512" width="384" height="384">
  <defs>
    <linearGradient id="bg" x1="0%" y1="0%" x2="100%" y2="100%">
      <stop offset="0%" style="stop-color:#60a5fa"/>
      <stop offset="100%" style="stop-color:#3b82f6"/>
    </linearGradient>
  </defs>
  <rect width="512" height="512" rx="96" ry="96" fill="url(#bg)"/>
  <rect x="180" y="160" width="152" height="216" rx="32" ry="32" fill="white" opacity="0.95"/>
  <rect x="206" y="116" width="100" height="52" rx="16" ry="16" fill="white" opacity="0.95"/>
  <path d="M230 116 Q256 72 282 116" fill="white" opacity="0.95" stroke="white" stroke-width="4"/>
  <rect x="188" y="256" width="136" height="112" rx="24" ry="24" fill="#fbbf24" opacity="0.6"/>
  <line x1="188" y1="210" x2="220" y2="210" stroke="#93c5fd" stroke-width="5" stroke-linecap="round"/>
  <line x1="188" y1="236" x2="210" y2="236" stroke="#93c5fd" stroke-width="5" stroke-linecap="round"/>
  <line x1="188" y1="262" x2="220" y2="262" stroke="#93c5fd" stroke-width="5" stroke-linecap="round"/>
  <line x1="188" y1="288" x2="210" y2="288" stroke="#93c5fd" stroke-width="5" stroke-linecap="round"/>
  <path d="M356 396 C356 386 372 374 380 384 C388 374 404 386 404 396 C404 412 380 428 380 428 C380 428 356 412 356 396Z" fill="#f472b6" opacity="0.8"/>
</svg>
