<svg xmlns="http://www.w3.org/2000/svg" viewBox="0 0 192 192" width="192" height="192">
  <defs>
    <linearGradient id="bg" x1="0%" y1="0%" x2="100%" y2="100%">
      <stop offset="0%" style="stop-color:#60a5fa"/>
      <stop offset="100%" style="stop-color:#3b82f6"/>
    </linearGradient>
  </defs>
  <!-- 背景圆角矩形 -->
  <rect width="192" height="192" rx="38" ry="38" fill="url(#bg)"/>
  <!-- 奶瓶主体 -->
  <rect x="68" y="60" width="56" height="80" rx="12" ry="12" fill="white" opacity="0.95"/>
  <!-- 奶瓶瓶口 -->
  <rect x="78" y="44" width="36" height="20" rx="6" ry="6" fill="white" opacity="0.95"/>
  <!-- 奶嘴 -->
  <path d="M88 44 Q96 28 104 44" fill="white" opacity="0.95" stroke="white" stroke-width="2"/>
  <!-- 奶液 -->
  <rect x="72" y="95" width="48" height="41" rx="8" ry="8" fill="#fbbf24" opacity="0.6"/>
  <!-- 刻度线 -->
  <line x1="72" y1="80" x2="84" y2="80" stroke="#93c5fd" stroke-width="2" stroke-linecap="round"/>
  <line x1="72" y1="90" x2="80" y2="90" stroke="#93c5fd" stroke-width="2" stroke-linecap="round"/>
  <line x1="72" y1="100" x2="84" y2="100" stroke="#93c5fd" stroke-width="2" stroke-linecap="round"/>
  <line x1="72" y1="110" x2="80" y2="110" stroke="#93c5fd" stroke-width="2" stroke-linecap="round"/>
  <!-- 心形装饰 -->
  <path d="M134 148 C134 144 140 140 143 144 C146 140 152 144 152 148 C152 154 143 160 143 160 C143 160 134 154 134 148Z" fill="#f472b6" opacity="0.8"/>
</svg>
